<mxfile host="app.diagrams.net" modified="2023-03-13T10:48:11.335Z" agent="5.0 (Windows NT 10.0; Win64; x64) AppleWebKit/537.36 (KHTML, like Gecko) Chrome/110.0.0.0 Safari/537.36" etag="vI-FUzlD6jlJBqfbNV7Q" version="21.0.2" type="github">
  <diagram name="Page-1" id="NUggnXFyrbAfu-UNpIHc">
    <mxGraphModel dx="1434" dy="796" grid="1" gridSize="10" guides="1" tooltips="1" connect="1" arrows="1" fold="1" page="1" pageScale="1" pageWidth="827" pageHeight="1169" math="0" shadow="0">
      <root>
        <mxCell id="0" />
        <mxCell id="1" parent="0" />
        <mxCell id="dF5YrMiPJXt9V0sG57gz-1" value="" style="shape=mxgraph.bpmn.data;labelPosition=center;verticalLabelPosition=bottom;align=center;verticalAlign=top;size=15;html=1;" vertex="1" parent="1">
          <mxGeometry x="100" y="220" width="40" height="60" as="geometry" />
        </mxCell>
        <mxCell id="dF5YrMiPJXt9V0sG57gz-2" value="" style="edgeStyle=elbowEdgeStyle;fontSize=12;html=1;shape=link;rounded=0;" edge="1" parent="1">
          <mxGeometry width="160" relative="1" as="geometry">
            <mxPoint x="140" y="250" as="sourcePoint" />
            <mxPoint x="300" y="250" as="targetPoint" />
          </mxGeometry>
        </mxCell>
        <mxCell id="dF5YrMiPJXt9V0sG57gz-3" value="" style="shape=mxgraph.bpmn.conversation;perimeter=hexagonPerimeter2;whiteSpace=wrap;html=1;aspect=fixed;bpmnConversationType=call;isLoopSub=1;" vertex="1" parent="1">
          <mxGeometry x="300" y="220" width="70" height="60" as="geometry" />
        </mxCell>
      </root>
    </mxGraphModel>
  </diagram>
</mxfile>
